<svg xmlns="http://www.w3.org/2000/svg" width="26" height="15" viewBox="0 0 26 15">
    <g fill="none" fill-rule="evenodd">
        <g fill="#141415">
            <g>
                <path d="M22.37 5c.755 0 1.229.179 1.694.593h.025v-.449H26v4.969c0 1.442-.279 2.322-.936 2.933-.782.727-1.895.779-2.833.647v-1.491c.783.077 1.86-.428 1.858-1.42v-.383h-.025c-.438.592-1.08.809-1.93.809-.79 0-1.475-.287-1.938-.819-.465-.531-.696-1.244-.696-2.138 0-1.002.258-1.798.775-2.387C20.79 5.274 21.528 5 22.37 5zM1.9 2.5v3.29h.025c.513-.456 1.195-.61 2-.638.688-.024 1.406.424 1.834.94.429.513.741 1.318.741 2.211 0 .97-.248 1.525-.75 2.112-.5.587-1.27.835-2.106.835-.758 0-1.312-.236-1.72-.56H1.9v.419H0V2.5h1.9zm8.5 3.55v5.2H8.646V5.983c0-1.215-.846-1.375-.846-1.375V2.5s2.457.17 2.6 3.55zM14.95 5c.44 0 .858.079 1.254.235.395.157.744.38 1.05.675.308.296.543.634.704 1.012.161.378.242.78.242 1.203 0 .424-.08.825-.242 1.203-.161.379-.396.716-.704 1.012-.306.294-.655.52-1.05.675-.396.156-.814.235-1.254.235-.431 0-.843-.079-1.234-.235-.392-.156-.742-.381-1.052-.675-.317-.308-.557-.65-.72-1.024-.163-.374-.244-.771-.244-1.19 0-.42.08-.818.244-1.192.163-.375.403-.716.72-1.024.31-.294.66-.518 1.052-.675.39-.156.803-.235 1.234-.235zM3.19 6.92c-.36 0-.67.135-.926.407-.256.272-.385.6-.385.987 0 .385.129.715.385.986.257.271.565.407.926.407.367 0 .68-.136.942-.407.261-.271.392-.601.392-.986 0-.387-.131-.715-.392-.987-.262-.272-.575-.407-.942-.407zm11.758-.175c-.358 0-.663.135-.917.4-.254.266-.381.589-.381.968s.127.7.381.967.56.4.917.4c.364 0 .673-.133.932-.4.26-.266.388-.588.388-.967 0-.38-.129-.702-.388-.967-.259-.266-.568-.4-.932-.4zm7.82.051c-.366 0-.679.13-.938.39-.261.259-.39.572-.39.94s.129.684.39.942c.26.259.572.389.937.389.371 0 .689-.13.953-.39.266-.257.397-.573.397-.94 0-.37-.131-.682-.397-.942-.264-.26-.582-.389-.953-.389z" transform="translate(-810 -1175) translate(430 60) translate(380 1115)"/>
            </g>
        </g>
    </g>
</svg>
