<svg xmlns="http://www.w3.org/2000/svg" width="16" height="16" viewBox="0 0 16 16">
    <g fill="none" fill-rule="evenodd">
        <g fill="#141415">
            <g>
                <path d="M9.132 0c.744.003 1.143.009 1.506.02l.18.007c.15.005.302.012.48.02.851.04 1.433.174 1.942.372.526.205.972.478 1.417.923.444.445.718.89.922 1.417.198.509.333 1.09.372 1.942.036.782.046 1.076.048 2.793v1.01c-.002 1.717-.012 2.011-.048 2.794-.039.851-.174 1.433-.372 1.942-.204.526-.478.972-.922 1.417-.445.444-.891.718-1.417.922-.51.198-1.09.333-1.942.372-.783.036-1.077.046-2.794.048h-1.01c-1.717-.002-2.011-.012-2.793-.048-.852-.039-1.433-.174-1.942-.372-.526-.204-.972-.478-1.417-.922-.445-.445-.718-.891-.923-1.417-.198-.51-.333-1.09-.372-1.942-.008-.178-.015-.33-.02-.48l-.007-.18C.01 10.275.003 9.876 0 9.132V6.866c.003-.744.009-1.142.02-1.505l.007-.18c.005-.15.012-.302.02-.48.04-.852.174-1.433.372-1.942.205-.526.478-.972.923-1.417.445-.445.89-.718 1.417-.923C3.268.221 3.849.086 4.7.047c.178-.008.33-.015.48-.02L5.36.02C5.724.01 6.122.003 6.866 0zm-.637 1.44h-.992l-.221.001h-.395c-1.155.004-1.453.016-2.12.046-.78.036-1.204.166-1.486.276-.373.145-.64.318-.92.598-.28.28-.453.547-.598.92-.11.282-.24.706-.276 1.486-.03.667-.042.965-.045 2.12v.395l-.001.221v1.608c.004 1.155.016 1.453.046 2.12.036.78.166 1.205.276 1.486.145.374.318.64.598.92.28.28.547.454.92.599.282.11.706.24 1.486.275.175.008.325.015.472.02l.176.007c.385.012.807.017 1.662.019h1.845c.854-.002 1.277-.007 1.661-.02l.176-.006c.147-.005.297-.012.473-.02.78-.035 1.204-.166 1.485-.275.374-.145.64-.319.92-.599.28-.28.454-.546.599-.92.11-.281.24-.705.275-1.485.008-.176.015-.326.02-.473l.007-.176c.012-.384.017-.807.019-1.661V7.077c-.002-.855-.007-1.277-.02-1.662l-.006-.176c-.005-.147-.012-.297-.02-.472-.035-.78-.166-1.204-.275-1.486-.145-.373-.319-.64-.599-.92-.28-.28-.546-.453-.92-.598-.281-.11-.705-.24-1.485-.276-.668-.03-.966-.042-2.12-.045h-.395l-.222-.001zM8 4c2.21 0 4 1.79 4 4 0 2.208-1.79 4-4 4-2.209 0-4-1.792-4-4C4 5.79 5.79 4 8 4zm0 1.403c-1.434 0-2.596 1.162-2.596 2.596 0 1.434 1.162 2.597 2.596 2.597 1.434 0 2.597-1.163 2.597-2.597S9.433 5.403 7.999 5.403zm4.667-2.737c.368 0 .667.298.667.667 0 .368-.299.666-.667.666-.368 0-.667-.298-.667-.666 0-.369.299-.667.667-.667z" transform="translate(-810 -474) translate(430 60) translate(380 414)"/>
            </g>
        </g>
    </g>
</svg>
